# xmcd
#
# Track frame offsets:
#	150
#	23718
#	55349
#	98556
#	131728
#	158101
#	205279
#	255016
#	283477
#
# Disc length: 4159 seconds
#
# Revision: 1
# Processed by: cddbd v1.5.2PL0 Copyright (c) Steve Scherf et al.
# Submitted via: audiograbber 1.83.01
#
DISCID=78103d09
DTITLE=Rodney Jones - Soul Manifesto Live!
DYEAR=2003
DGENRE=Jazz
TTITLE0=Let the Music Take Your Mind
TTITLE1=Soul Makossa
TTITLE2=Soul Manifesto (The Manifesto)
TTITLE3=Light My Fire
TTITLE4=Summertime
TTITLE5=Live Bait
TTITLE6=Groovebone (The Sermon)
TTITLE7=Morning of the Carnival (Manha de Carnaval)
TTITLE8=Dissertation on the Blues
EXTD=YEAR: 2003
EXTT0=
EXTT1=
EXTT2=
EXTT3=
EXTT4=
EXTT5=
EXTT6=
EXTT7=
EXTT8=
PLAYORDER=
